<svg width="71" height="74" viewBox="0 0 71 74" fill="none" xmlns="http://www.w3.org/2000/svg">
<g clip-path="url(#clip0)">
<path d="M40.9728 21.5888C33.0046 21.8862 13.2397 24.1491 13.2397 40.9973C13.2397 59.0844 35.8679 59.8277 43.2634 48.133C44.3269 49.8179 49.0554 54.3272 50.6752 55.8634L59.9687 46.6134C59.9687 46.6134 54.6838 42.4344 54.6838 37.892V13.5942C54.6838 9.41518 50.6752 0 36.3097 0C21.9114 0 14.2705 9.08482 14.2705 17.2281L26.2963 18.3513C28.9633 10.175 35.1643 10.175 35.1643 10.175C41.8236 10.1585 40.9728 15.0973 40.9728 21.5888ZM40.9728 35.9263C40.9728 49.1406 27.1962 47.1585 27.1962 38.7674C27.1962 30.971 35.4589 29.4018 40.9728 29.2201V35.9263ZM63.2247 62.933C61.9648 64.5848 51.7715 74 34.6735 74C17.5755 74 4.48618 62.1897 0.477561 57.317C-0.635034 56.0451 0.641178 55.4504 1.37745 55.946C13.3706 63.2964 32.1047 75.404 62.3248 60.9509C63.5519 60.3397 64.5009 61.2812 63.2247 62.933ZM69.7366 63.2964C68.6731 65.9062 67.1187 67.7232 66.2679 68.417C65.368 69.1603 64.7136 68.8629 65.2044 67.7893C65.6953 66.7156 68.3622 60.1085 67.2823 58.7045C66.2188 57.3335 61.2285 57.9942 59.4287 58.1759C57.6617 58.3411 57.3017 58.5062 57.1381 58.1263C56.7618 57.1848 60.6886 55.5661 63.2737 55.2357C65.8425 54.9384 69.982 55.1036 70.8001 56.1772C71.4055 57.0196 70.8001 60.6536 69.7366 63.2964Z" fill="white"/>
</g>
<defs>
<clipPath id="clip0">
<rect width="71" height="74" fill="white"/>
</clipPath>
</defs>
</svg>
