<svg width="71" height="74" viewBox="0 0 71 74" fill="none" xmlns="http://www.w3.org/2000/svg">
<path d="M58.6954 39.1049C58.6582 33.0417 61.7454 28.4654 67.994 25.0952C64.4978 20.6511 59.2162 18.206 52.2422 17.7269C45.6402 17.2643 38.4244 21.1467 35.7836 21.1467C32.994 21.1467 26.5966 17.8921 21.5753 17.8921C11.1981 18.0408 0.169922 25.2439 0.169922 39.8979C0.169922 44.2263 1.06259 48.698 2.84792 53.3128C5.22837 59.376 13.8203 74.2448 22.7842 73.9969C27.4707 73.8978 30.781 71.0397 36.8809 71.0397C42.7948 71.0397 45.8633 73.9969 51.0892 73.9969C60.1274 73.8813 67.9011 60.3672 70.1699 54.2876C58.0445 49.2157 58.6954 39.4188 58.6954 39.1049ZM48.1694 11.9776C53.2464 6.62487 52.7815 1.75121 52.6327 0C48.1508 0.231292 42.9622 2.70942 40.0052 5.76578C36.7507 9.03691 34.8352 13.0845 35.2443 17.6443C40.0982 17.9747 44.5243 15.7609 48.1694 11.9776Z" fill="white"/>
</svg>
