<svg width="40" height="36" viewBox="0 0 40 36" fill="none" xmlns="http://www.w3.org/2000/svg">
<path d="M37.1429 0.5H2.84821C1.27679 0.5 0 1.63281 0 3.02344V32.9766C0 34.3672 1.27679 35.5 2.84821 35.5H37.1429C38.7143 35.5 40 34.3672 40 32.9766V3.02344C40 1.63281 38.7143 0.5 37.1429 0.5ZM12.0893 30.5H6.16071V13.7969H12.0982V30.5H12.0893ZM9.125 11.5156C7.22321 11.5156 5.6875 10.1641 5.6875 8.50781C5.6875 6.85156 7.22321 5.5 9.125 5.5C11.0179 5.5 12.5625 6.85156 12.5625 8.50781C12.5625 10.1719 11.0268 11.5156 9.125 11.5156ZM34.3125 30.5H28.3839V22.375C28.3839 20.4375 28.3393 17.9453 25.3036 17.9453C22.2143 17.9453 21.7411 20.0547 21.7411 22.2344V30.5H15.8125V13.7969H21.5V16.0781H21.5804C22.375 14.7656 24.3125 13.3828 27.1964 13.3828C33.1964 13.3828 34.3125 16.8438 34.3125 21.3438V30.5Z" fill="white"/>
</svg>
