<svg width="71" height="74" viewBox="0 0 71 74" fill="none" xmlns="http://www.w3.org/2000/svg">
<g clip-path="url(#clip0)">
<path d="M35.516 20.3788C25.4366 20.3788 17.3064 27.7933 17.3064 36.9855C17.3064 46.1776 25.4366 53.5921 35.516 53.5921C45.5955 53.5921 53.7256 46.1776 53.7256 36.9855C53.7256 27.7933 45.5955 20.3788 35.516 20.3788ZM35.516 47.7819C29.0024 47.7819 23.6774 42.9401 23.6774 36.9855C23.6774 31.0308 28.9866 26.189 35.516 26.189C42.0455 26.189 47.3546 31.0308 47.3546 36.9855C47.3546 42.9401 42.0296 47.7819 35.516 47.7819ZM58.7178 19.6995C58.7178 21.853 56.816 23.573 54.4705 23.573C52.1091 23.573 50.2232 21.8386 50.2232 19.6995C50.2232 17.5605 52.125 15.8261 54.4705 15.8261C56.816 15.8261 58.7178 17.5605 58.7178 19.6995ZM70.7783 23.6308C70.5089 18.4421 69.2093 13.846 65.0413 10.0593C60.889 6.27256 55.8493 5.0874 50.1598 4.82725C44.2959 4.52373 26.7203 4.52373 20.8564 4.82725C15.1828 5.07295 10.143 6.25811 5.97495 10.0448C1.80686 13.8315 0.523159 18.4276 0.237891 23.6163C-0.0949219 28.964 -0.0949219 44.9925 0.237891 50.3401C0.50731 55.5288 1.80686 60.1249 5.97495 63.9116C10.143 67.6983 15.1669 68.8835 20.8564 69.1437C26.7203 69.4472 44.2959 69.4472 50.1598 69.1437C55.8493 68.898 60.889 67.7128 65.0413 63.9116C69.1935 60.1249 70.493 55.5288 70.7783 50.3401C71.1111 44.9925 71.1111 28.9784 70.7783 23.6308ZM63.2029 56.078C61.9667 58.9108 59.5736 61.0933 56.4515 62.2351C51.7763 63.9261 40.6825 63.5358 35.516 63.5358C30.3495 63.5358 19.2399 63.9116 14.5805 62.2351C11.4743 61.1077 9.0812 58.9253 7.82919 56.078C5.97495 51.8144 6.40285 41.6972 6.40285 36.9855C6.40285 32.2737 5.99079 22.1421 7.82919 17.8929C9.06535 15.0601 11.4584 12.8776 14.5805 11.7358C19.2558 10.0448 30.3495 10.4351 35.516 10.4351C40.6825 10.4351 51.7921 10.0593 56.4515 11.7358C59.5578 12.8632 61.9508 15.0456 63.2029 17.8929C65.0571 22.1565 64.6292 32.2737 64.6292 36.9855C64.6292 41.6972 65.0571 51.8288 63.2029 56.078Z" fill="white"/>
</g>
<defs>
<clipPath id="clip0">
<rect width="71" height="74" fill="white"/>
</clipPath>
</defs>
</svg>
