<svg width="85" height="93" viewBox="0 0 85 93" fill="none" xmlns="http://www.w3.org/2000/svg">
<path d="M44.991 13.12L56.799 45.808C57.279 47.248 57.687 48.448 58.023 49.408C58.407 50.368 58.719 51.184 58.959 51.856C59.247 52.528 59.487 53.104 59.679 53.584C59.871 54.016 60.039 54.4 60.183 54.736C60.711 55.936 61.239 56.872 61.767 57.544C62.343 58.168 62.919 58.648 63.495 58.984C64.071 59.272 64.647 59.44 65.223 59.488C65.847 59.536 66.471 59.56 67.095 59.56L67.455 59.848L67.671 61.144L67.527 61.432C67.191 61.432 66.687 61.408 66.015 61.36C65.343 61.312 64.647 61.264 63.927 61.216C63.207 61.168 62.511 61.12 61.839 61.072C61.215 61.024 60.735 61 60.399 61H58.023C57.687 61 57.135 61.024 56.367 61.072C55.599 61.12 54.783 61.168 53.919 61.216C53.103 61.264 52.311 61.312 51.543 61.36C50.775 61.408 50.223 61.432 49.887 61.432L49.743 61.144L49.959 59.848L50.247 59.56C51.639 59.56 52.719 59.416 53.487 59.128C54.255 58.792 54.639 57.928 54.639 56.536C54.639 55.432 54.255 53.896 53.487 51.928C52.767 49.912 51.855 47.392 50.751 44.368L49.527 40.912H33.399L32.175 44.368C31.071 47.392 30.135 49.912 29.367 51.928C28.647 53.896 28.287 55.432 28.287 56.536C28.287 57.928 28.671 58.792 29.439 59.128C30.207 59.416 31.287 59.56 32.679 59.56L33.039 59.848L33.255 61.144L33.111 61.432C32.775 61.432 32.247 61.408 31.527 61.36C30.807 61.312 30.039 61.264 29.223 61.216C28.455 61.168 27.711 61.12 26.991 61.072C26.271 61.024 25.743 61 25.407 61H24.039C23.703 61 23.199 61.024 22.527 61.072C21.855 61.12 21.159 61.168 20.439 61.216C19.719 61.264 19.023 61.312 18.351 61.36C17.727 61.408 17.247 61.432 16.911 61.432L16.839 61.144L16.983 59.848L17.343 59.56C17.967 59.56 18.567 59.536 19.143 59.488C19.719 59.44 20.295 59.272 20.871 58.984C21.447 58.648 21.999 58.168 22.527 57.544C23.103 56.872 23.679 55.936 24.255 54.736C24.399 54.496 24.519 54.232 24.615 53.944C24.759 53.608 24.951 53.128 25.191 52.504C25.479 51.88 25.815 51.064 26.199 50.056C26.631 49 27.159 47.656 27.783 46.024C28.455 44.344 29.247 42.304 30.159 39.904C31.119 37.504 32.271 34.6 33.615 31.192C34.239 29.512 34.887 27.856 35.559 26.224C36.231 24.544 36.855 22.984 37.431 21.544C38.007 20.104 38.511 18.832 38.943 17.728C39.423 16.624 39.759 15.808 39.951 15.28L44.199 13.12H44.991ZM34.623 37.816H48.375L41.535 19.312L34.623 37.816Z" fill="white"/>
<path d="M51.8328 84.432C51.4968 84.432 50.9688 84.408 50.2488 84.36C49.5288 84.312 48.7608 84.264 47.9448 84.216C47.1288 84.168 46.3608 84.12 45.6408 84.072C44.9208 84.024 44.3928 84 44.0568 84H39.9528C39.6168 84 39.0888 84.024 38.3688 84.072C37.6488 84.12 36.8808 84.168 36.0648 84.216C35.2968 84.264 34.5528 84.312 33.8328 84.36C33.1128 84.408 32.5848 84.432 32.2488 84.432L32.1048 84.144L32.3208 82.848L32.6808 82.56C33.4488 82.56 34.3128 82.536 35.2728 82.488C36.2328 82.392 36.9048 82.176 37.2888 81.84C37.6728 81.504 38.0808 81.072 38.5128 80.544C38.9448 80.016 39.2088 79.08 39.3048 77.736C39.3528 77.4 39.3768 77.016 39.3768 76.584C39.4248 76.104 39.4488 75.528 39.4488 74.856C39.4968 74.184 39.5208 73.368 39.5208 72.408C39.5208 71.448 39.5208 70.248 39.5208 68.808V54.192C39.5208 51.072 39.4968 48.312 39.4488 45.912C39.4008 43.464 39.3528 41.616 39.3048 40.368H38.5128C36.1128 40.368 34.1448 40.392 32.6088 40.44C31.0728 40.44 29.8248 40.488 28.8648 40.584C27.9528 40.632 27.2568 40.704 26.7768 40.8C26.3448 40.896 26.0328 41.016 25.8408 41.16C24.7848 41.736 24.1368 42.984 23.8968 44.904L23.6088 45.192H21.9528L22.4568 36.984L22.7448 36.336L23.1768 36.12C23.5608 36.264 24.4008 36.408 25.6968 36.552C26.9928 36.648 28.4088 36.72 29.9448 36.768C31.4808 36.816 32.9448 36.864 34.3368 36.912C35.7768 36.912 36.8088 36.912 37.4328 36.912H46.5048C47.1288 36.912 48.1368 36.912 49.5288 36.912C50.9688 36.864 52.4568 36.816 53.9928 36.768C55.5288 36.72 56.9448 36.648 58.2408 36.552C59.5368 36.408 60.3768 36.264 60.7608 36.12L61.1928 36.336L61.4808 36.984L62.0568 45.192H60.3288L60.0408 44.904C59.8008 42.984 59.1528 41.736 58.0968 41.16C57.9048 41.016 57.5688 40.896 57.0888 40.8C56.6568 40.704 55.9608 40.632 55.0008 40.584C54.0888 40.488 52.8648 40.44 51.3288 40.44C49.7928 40.392 47.8488 40.368 45.4968 40.368H44.7048C44.6568 41.76 44.6088 43.584 44.5608 45.84C44.5608 48.096 44.5608 50.856 44.5608 54.12V67.368C44.5608 69.096 44.5608 70.512 44.5608 71.616C44.5608 72.672 44.5608 73.56 44.5608 74.28C44.6088 75 44.6328 75.624 44.6328 76.152C44.6808 76.632 44.7288 77.16 44.7768 77.736C44.8728 79.08 45.1368 80.016 45.5688 80.544C46.0008 81.072 46.4088 81.504 46.7928 81.84C47.1768 82.176 47.8488 82.392 48.8088 82.488C49.7688 82.536 50.6328 82.56 51.4008 82.56L51.7608 82.848L51.9768 84.144L51.8328 84.432Z" fill="white"/>
</svg>
