<svg width="40" height="40" viewBox="0 0 40 40" fill="none" xmlns="http://www.w3.org/2000/svg">
<g clip-path="url(#clip0)">
<path d="M20.0088 11.0156C14.3302 11.0156 9.74985 15.0234 9.74985 19.9922C9.74985 24.9609 14.3302 28.9687 20.0088 28.9687C25.6873 28.9687 30.2677 24.9609 30.2677 19.9922C30.2677 15.0234 25.6873 11.0156 20.0088 11.0156ZM20.0088 25.8281C16.3391 25.8281 13.3391 23.2109 13.3391 19.9922C13.3391 16.7734 16.3302 14.1562 20.0088 14.1562C23.6873 14.1562 26.6784 16.7734 26.6784 19.9922C26.6784 23.2109 23.6784 25.8281 20.0088 25.8281ZM33.0802 10.6484C33.0802 11.8125 32.0088 12.7422 30.6873 12.7422C29.357 12.7422 28.2945 11.8047 28.2945 10.6484C28.2945 9.49218 29.3659 8.55468 30.6873 8.55468C32.0088 8.55468 33.0802 9.49218 33.0802 10.6484ZM39.8748 12.7734C39.723 9.96874 38.9909 7.48436 36.6427 5.43749C34.3034 3.39061 31.4641 2.74999 28.2588 2.60936C24.9552 2.4453 15.0534 2.4453 11.7499 2.60936C8.55343 2.74218 5.71414 3.3828 3.36593 5.42968C1.01772 7.47655 0.294503 9.96093 0.133789 12.7656C-0.0537109 15.6562 -0.0537109 24.3203 0.133789 27.2109C0.285575 30.0156 1.01772 32.5 3.36593 34.5469C5.71414 36.5937 8.5445 37.2344 11.7499 37.375C15.0534 37.5391 24.9552 37.5391 28.2588 37.375C31.4641 37.2422 34.3034 36.6016 36.6427 34.5469C38.982 32.5 39.7141 30.0156 39.8748 27.2109C40.0623 24.3203 40.0623 15.6641 39.8748 12.7734ZM35.607 30.3125C34.9105 31.8437 33.5623 33.0234 31.8034 33.6406C29.1695 34.5547 22.9195 34.3437 20.0088 34.3437C17.0981 34.3437 10.8391 34.5469 8.21414 33.6406C6.46414 33.0312 5.11593 31.8516 4.41057 30.3125C3.36593 28.0078 3.607 22.5391 3.607 19.9922C3.607 17.4453 3.37486 11.9687 4.41057 9.67186C5.107 8.14061 6.45521 6.96093 8.21414 6.34374C10.8481 5.42968 17.0981 5.64061 20.0088 5.64061C22.9195 5.64061 29.1784 5.43749 31.8034 6.34374C33.5534 6.95311 34.9016 8.1328 35.607 9.67186C36.6516 11.9766 36.4105 17.4453 36.4105 19.9922C36.4105 22.5391 36.6516 28.0156 35.607 30.3125Z" fill="white"/>
</g>
<defs>
<clipPath id="clip0">
<rect width="40" height="40" fill="white"/>
</clipPath>
</defs>
</svg>
